# xmcd CD database file
#
# Track frame offsets:
#	151
#	10551
#	24594
#	81726
#	142608
#	179659
#	238264
#	261049
#	281732
#	313788
#
# Disc length: 4428 seconds
#
# Revision: 0
# Processed by: cddbd v1.5.2PL0 Copyright (c) Steve Scherf et al.
# Submitted via: CDex 1.51
#
DISCID=88114a0a
DTITLE=His Holiness Sri Ganapati - Live in Coventry
DYEAR=2010
DGENRE=New Age
TTITLE0=Pranava Svarupam
TTITLE1=Galadhana Gandham
TTITLE2=Jai Jai Ganapati
TTITLE3=Jaya Jaya Vani
TTITLE4=Krishnam Vishnum
TTITLE5=Samajavaragamana
TTITLE6=Jagadeesha Guru Datta
TTITLE7=Theme from Kuruksheta (Mahabharata)
TTITLE8=Guru Padamu
TTITLE9=Mangalam
EXTD=YEAR: 2010
EXTT0=
EXTT1=
EXTT2=
EXTT3=
EXTT4=
EXTT5=
EXTT6=
EXTT7=
EXTT8=
EXTT9=
PLAYORDER=
